<svg xmlns="http://www.w3.org/2000/svg" viewBox="0 0 1200 675" width="1200" height="675">
  <defs>
    <linearGradient id="bg3" x1="0" y1="0" x2="1" y2="1">
      <stop offset="0%" stop-color="#0f0b1e"/>
      <stop offset="100%" stop-color="#08060f"/>
    </linearGradient>
  </defs>
  <rect width="1200" height="675" fill="url(#bg3)"/>
  <text x="60" y="70" font-family="Arial, sans-serif" font-size="30" font-weight="700" fill="#ffffff">Rental Units</text>
  <text x="60" y="100" font-family="Arial, sans-serif" font-size="16" fill="#8b8fa3">Occupancy status across all properties</text>

  <g font-family="Arial, sans-serif">
    <rect x="60" y="140" width="255" height="180" rx="16" fill="#ffffff0d" stroke="#ffffff1f"/>
    <text x="85" y="175" font-size="18" font-weight="700" fill="#ffffff">Unit 101</text>
    <rect x="85" y="195" width="80" height="24" rx="12" fill="#00f0ff33"/>
    <text x="97" y="212" font-size="12" fill="#00f0ff">Occupied</text>
    <text x="85" y="280" font-size="14" fill="#8b8fa3">$1,250/mo</text>

    <rect x="335" y="140" width="255" height="180" rx="16" fill="#ffffff0d" stroke="#ffffff1f"/>
    <text x="360" y="175" font-size="18" font-weight="700" fill="#ffffff">Unit 102</text>
    <rect x="360" y="195" width="70" height="24" rx="12" fill="#8b5cf633"/>
    <text x="372" y="212" font-size="12" fill="#8b5cf6">Vacant</text>
    <text x="360" y="280" font-size="14" fill="#8b8fa3">$1,100/mo</text>

    <rect x="610" y="140" width="255" height="180" rx="16" fill="#ffffff0d" stroke="#ffffff1f"/>
    <text x="635" y="175" font-size="18" font-weight="700" fill="#ffffff">Unit 103</text>
    <rect x="635" y="195" width="80" height="24" rx="12" fill="#00f0ff33"/>
    <text x="647" y="212" font-size="12" fill="#00f0ff">Occupied</text>
    <text x="635" y="280" font-size="14" fill="#8b8fa3">$1,350/mo</text>

    <rect x="885" y="140" width="255" height="180" rx="16" fill="#ffffff0d" stroke="#ffffff1f"/>
    <text x="910" y="175" font-size="18" font-weight="700" fill="#ffffff">Unit 104</text>
    <rect x="910" y="195" width="90" height="24" rx="12" fill="#ff2d9e33"/>
    <text x="922" y="212" font-size="12" fill="#ff2d9e">Maintenance</text>
    <text x="910" y="280" font-size="14" fill="#8b8fa3">$1,200/mo</text>

    <rect x="60" y="350" width="1080" height="130" rx="16" fill="#ffffff0d" stroke="#ffffff1f"/>
    <text x="90" y="385" font-size="16" fill="#8b8fa3">Occupancy rate</text>
    <text x="90" y="440" font-size="42" font-weight="700" fill="#00f0ff">86%</text>
    <rect x="300" y="415" width="800" height="18" rx="9" fill="#ffffff14"/>
    <rect x="300" y="415" width="688" height="18" rx="9" fill="#00f0ff"/>
  </g>

  <text x="60" y="640" font-family="Arial, sans-serif" font-size="14" fill="#4b4f60">PLACEHOLDER — replace with real dashboard screenshot</text>
</svg>
