<svg xmlns="http://www.w3.org/2000/svg" viewBox="0 0 1200 675" width="1200" height="675">
  <defs>
    <linearGradient id="bg2" x1="0" y1="0" x2="1" y2="1">
      <stop offset="0%" stop-color="#0f0b1e"/>
      <stop offset="100%" stop-color="#08060f"/>
    </linearGradient>
  </defs>
  <rect width="1200" height="675" fill="url(#bg2)"/>
  <text x="60" y="70" font-family="Arial, sans-serif" font-size="30" font-weight="700" fill="#ffffff">Policies</text>
  <text x="60" y="100" font-family="Arial, sans-serif" font-size="16" fill="#8b8fa3">Client policies, status and renewal dates</text>

  <g font-family="Arial, sans-serif" font-size="14">
    <rect x="60" y="140" width="1080" height="46" rx="10" fill="#ffffff12"/>
    <text x="90" y="169" fill="#8b8fa3">CLIENT</text>
    <text x="420" y="169" fill="#8b8fa3">POLICY #</text>
    <text x="650" y="169" fill="#8b8fa3">STATUS</text>
    <text x="850" y="169" fill="#8b8fa3">RENEWAL</text>

    <g>
      <rect x="60" y="200" width="1080" height="56" fill="#ffffff08"/>
      <text x="90" y="234" fill="#e5e7eb">M. Castro</text>
      <text x="420" y="234" fill="#e5e7eb">POL-10432</text>
      <rect x="650" y="216" width="70" height="24" rx="12" fill="#00f0ff33"/>
      <text x="662" y="233" fill="#00f0ff" font-size="12">Active</text>
      <text x="850" y="234" fill="#e5e7eb">2026-09-14</text>
    </g>
    <g>
      <rect x="60" y="256" width="1080" height="56" fill="#ffffff0d"/>
      <text x="90" y="290" fill="#e5e7eb">J. Reyes</text>
      <text x="420" y="290" fill="#e5e7eb">POL-10433</text>
      <rect x="650" y="272" width="70" height="24" rx="12" fill="#ff2d9e33"/>
      <text x="662" y="289" fill="#ff2d9e" font-size="12">Pending</text>
      <text x="850" y="290" fill="#e5e7eb">2026-08-02</text>
    </g>
    <g>
      <rect x="60" y="312" width="1080" height="56" fill="#ffffff08"/>
      <text x="90" y="346" fill="#e5e7eb">A. Santos</text>
      <text x="420" y="346" fill="#e5e7eb">POL-10434</text>
      <rect x="650" y="328" width="70" height="24" rx="12" fill="#00f0ff33"/>
      <text x="662" y="345" fill="#00f0ff" font-size="12">Active</text>
      <text x="850" y="346" fill="#e5e7eb">2026-11-30</text>
    </g>
    <g>
      <rect x="60" y="368" width="1080" height="56" fill="#ffffff0d"/>
      <text x="90" y="402" fill="#e5e7eb">R. Cruz</text>
      <text x="420" y="402" fill="#e5e7eb">POL-10435</text>
      <rect x="650" y="384" width="90" height="24" rx="12" fill="#8b5cf633"/>
      <text x="662" y="401" fill="#8b5cf6" font-size="12">Expiring</text>
      <text x="850" y="402" fill="#e5e7eb">2026-07-20</text>
    </g>
    <g>
      <rect x="60" y="424" width="1080" height="56" fill="#ffffff08"/>
      <text x="90" y="458" fill="#e5e7eb">L. Tan</text>
      <text x="420" y="458" fill="#e5e7eb">POL-10436</text>
      <rect x="650" y="440" width="70" height="24" rx="12" fill="#00f0ff33"/>
      <text x="662" y="457" fill="#00f0ff" font-size="12">Active</text>
      <text x="850" y="458" fill="#e5e7eb">2027-01-05</text>
    </g>
  </g>

  <text x="60" y="640" font-family="Arial, sans-serif" font-size="14" fill="#4b4f60">PLACEHOLDER — replace with real dashboard screenshot</text>
</svg>
