<svg xmlns="http://www.w3.org/2000/svg" viewBox="0 0 1200 675" width="1200" height="675">
  <defs>
    <linearGradient id="bg5" x1="0" y1="0" x2="1" y2="1">
      <stop offset="0%" stop-color="#0f0b1e"/>
      <stop offset="100%" stop-color="#08060f"/>
    </linearGradient>
  </defs>
  <rect width="1200" height="675" fill="url(#bg5)"/>
  <text x="60" y="70" font-family="Arial, sans-serif" font-size="30" font-weight="700" fill="#ffffff">Activity Log</text>
  <text x="60" y="100" font-family="Arial, sans-serif" font-size="16" fill="#8b8fa3">Recent actions across the system</text>

  <g font-family="Arial, sans-serif" font-size="14">
    <rect x="60" y="140" width="1080" height="60" rx="12" fill="#ffffff0d"/>
    <circle cx="95" cy="170" r="6" fill="#00f0ff"/>
    <text x="120" y="165" fill="#ffffff">New policy created — POL-10437</text>
    <text x="120" y="184" fill="#8b8fa3" font-size="12">2 minutes ago · M. Castro</text>

    <rect x="60" y="212" width="1080" height="60" rx="12" fill="#ffffff08"/>
    <circle cx="95" cy="242" r="6" fill="#ff2d9e"/>
    <text x="120" y="237" fill="#ffffff">Payment received — $1,250.00</text>
    <text x="120" y="256" fill="#8b8fa3" font-size="12">18 minutes ago · Unit 101</text>

    <rect x="60" y="284" width="1080" height="60" rx="12" fill="#ffffff0d"/>
    <circle cx="95" cy="314" r="6" fill="#8b5cf6"/>
    <text x="120" y="309" fill="#ffffff">Maintenance request submitted</text>
    <text x="120" y="328" fill="#8b8fa3" font-size="12">1 hour ago · Unit 104</text>

    <rect x="60" y="356" width="1080" height="60" rx="12" fill="#ffffff08"/>
    <circle cx="95" cy="386" r="6" fill="#00f0ff"/>
    <text x="120" y="381" fill="#ffffff">Policy renewed — POL-10432</text>
    <text x="120" y="400" fill="#8b8fa3" font-size="12">3 hours ago · M. Castro</text>

    <rect x="60" y="428" width="1080" height="60" rx="12" fill="#ffffff0d"/>
    <circle cx="95" cy="458" r="6" fill="#ff2d9e"/>
    <text x="120" y="453" fill="#ffffff">Invoice generated — INV-2291</text>
    <text x="120" y="472" fill="#8b8fa3" font-size="12">5 hours ago · Accounting</text>

    <rect x="60" y="500" width="1080" height="60" rx="12" fill="#ffffff08"/>
    <circle cx="95" cy="530" r="6" fill="#8b5cf6"/>
    <text x="120" y="525" fill="#ffffff">New client onboarded — R. Cruz</text>
    <text x="120" y="544" fill="#8b8fa3" font-size="12">Yesterday · CRM</text>
  </g>

  <text x="60" y="640" font-family="Arial, sans-serif" font-size="14" fill="#4b4f60">.</text>
</svg>
