<svg xmlns="http://www.w3.org/2000/svg" viewBox="0 0 1200 675" width="1200" height="675">
  <defs>
    <linearGradient id="bg4" x1="0" y1="0" x2="1" y2="1">
      <stop offset="0%" stop-color="#0f0b1e"/>
      <stop offset="100%" stop-color="#08060f"/>
    </linearGradient>
    <linearGradient id="bar4" x1="0" y1="1" x2="0" y2="0">
      <stop offset="0%" stop-color="#ff2d9e" stop-opacity="0.15"/>
      <stop offset="100%" stop-color="#ff2d9e" stop-opacity="0.85"/>
    </linearGradient>
  </defs>
  <rect width="1200" height="675" fill="url(#bg4)"/>
  <text x="60" y="70" font-family="Arial, sans-serif" font-size="30" font-weight="700" fill="#ffffff">Revenue</text>
  <text x="60" y="100" font-family="Arial, sans-serif" font-size="16" fill="#8b8fa3">Monthly revenue vs. target</text>

  <g font-family="Arial, sans-serif">
    <rect x="60" y="140" width="1080" height="440" rx="16" fill="#ffffff0d" stroke="#ffffff1f"/>

    <rect x="120" y="460" width="70" height="80" fill="url(#bar4)" rx="6"/>
    <rect x="220" y="410" width="70" height="130" fill="url(#bar4)" rx="6"/>
    <rect x="320" y="380" width="70" height="160" fill="url(#bar4)" rx="6"/>
    <rect x="420" y="340" width="70" height="200" fill="url(#bar4)" rx="6"/>
    <rect x="520" y="300" width="70" height="240" fill="url(#bar4)" rx="6"/>
    <rect x="620" y="260" width="70" height="280" fill="url(#bar4)" rx="6"/>
    <rect x="720" y="230" width="70" height="310" fill="url(#bar4)" rx="6"/>
    <rect x="820" y="200" width="70" height="340" fill="url(#bar4)" rx="6"/>
    <rect x="920" y="180" width="70" height="360" fill="url(#bar4)" rx="6"/>

    <text x="90" y="185" font-size="14" fill="#8b8fa3">Total this quarter</text>
    <text x="90" y="225" font-size="40" font-weight="700" fill="#ff2d9e">$142,860</text>
  </g>

  <text x="60" y="640" font-family="Arial, sans-serif" font-size="14" fill="#4b4f60">.</text>
</svg>
